<?xml version="1.0" encoding="UTF-8"?>
<svg width="180px" height="180px" viewBox="0 0 180 180" version="1.1" xmlns="http://www.w3.org/2000/svg" xmlns:xlink="http://www.w3.org/1999/xlink">
    <!-- Generator: Sketch 41.1 (35376) - http://www.bohemiancoding.com/sketch -->
    <title>180 - iPhone 6 Plus</title>
    <desc>Created with Sketch.</desc>
    <defs>
        <path d="M35.4787395,143.29274 C35.0234326,147.063358 33.4298825,150.155218 30.6980409,152.568414 C27.9661993,154.981609 25.0067489,156.527539 21.8196004,157.206251 C18.632452,157.884962 15.7109428,157.545611 13.054986,156.188189 C10.3990289,154.830766 8.995187,152.115962 8.84341802,148.043695 C8.08457316,130.698851 7.70515642,112.713272 7.70515642,94.086419 L7.70515642,38.5454919 C5.27685284,37.6405436 3.45565248,36.2831415 2.24150071,34.4732446 C1.02734894,32.6633481 0.306457126,30.6649505 0.0788036534,28.477992 C-0.148849819,26.2910335 0.116741935,24.0664021 0.875586801,21.8040313 C1.63443167,19.5416604 2.77268188,17.5809684 4.29037161,15.9218964 C5.95983028,14.1119997 8.23633074,12.4529527 11.1199412,10.9447054 C14.0035516,9.43645817 17.1527108,8.04135037 20.5675126,6.75934022 C23.9823145,5.47733008 27.3591236,4.38386723 30.6980409,3.47891887 C34.0369581,2.57397055 36.8446423,1.89526945 39.1211766,1.4427953 C48.6826219,-0.517926153 58.3198072,-0.480220507 68.0330214,1.55591327 C77.746236,3.59204704 86.2831126,7.24949174 93.6439074,12.5283571 C101.004703,17.8072224 106.506246,24.6696445 110.148701,33.1158291 C113.791156,41.5620137 114.170573,51.2146513 111.286962,62.0740313 C110.376349,65.090526 109.238098,68.106975 107.872177,71.1234697 C106.506257,74.1399639 104.912707,76.9301798 103.091479,79.4941999 C100.511406,83.4156428 97.4760723,86.8845595 93.9853863,89.9010537 C90.4946998,92.9175484 86.7005324,95.7077638 82.6027703,98.2717844 C85.4863806,101.288279 88.2181811,104.45555 90.7982534,107.773694 C93.3783262,111.091839 96.2618933,114.108288 99.4490417,116.823133 C100.663194,117.878906 102.446452,119.537953 104.798871,121.800324 C107.15129,124.062694 109.427791,126.475854 111.628441,129.039874 C113.829091,131.603894 115.764117,134.130171 117.433575,136.618779 C119.103034,139.107387 119.861867,141.181195 119.710098,142.840268 C119.558329,145.705937 118.761554,148.307625 117.319749,150.645408 C115.877944,152.983191 114.132627,154.793061 112.083746,156.075071 C110.034865,157.357081 107.796306,157.998076 105.368002,157.998076 C102.939699,157.998076 100.511432,157.168553 98.0831281,155.509481 C95.3512865,153.397935 92.7712527,150.909364 90.3429492,148.043695 C87.9146452,145.178025 85.5622618,142.538631 83.2857271,140.125436 C78.2773508,134.695746 73.3828748,129.228432 68.6021523,123.723329 C63.8214295,118.218227 58.9269535,112.826324 53.9185776,107.547459 C50.883198,108.150757 47.8099226,108.565519 44.6986588,108.791756 C41.5873945,109.017993 38.5141191,109.281933 35.4787395,109.583582 L35.4787395,141.709088 L35.4787395,143.29274 Z M76.228505,33.7945369 C70.1577461,30.1747435 63.5179534,28.1386403 56.3089269,27.6861661 C49.0999009,27.233692 42.1565744,28.214038 35.4787395,30.6272336 L35.4787395,81.7565597 C42.3083432,81.3040852 49.0240198,80.4368563 55.6259701,79.154846 C62.2279204,77.8728357 68.33653,75.0449147 73.9519819,70.6709977 C76.9873612,68.2578021 79.45357,65.4298811 81.3506825,62.1871494 C83.2477945,58.9444177 84.3860448,55.6263238 84.765467,52.2327671 C85.1448897,48.8392108 84.6895893,45.521117 83.3995534,42.2783852 C82.109517,39.0356535 79.7191915,36.2077325 76.228505,33.7945369 L76.228505,33.7945369 Z" id="path-1"></path>
    </defs>
    <g id="Page-1" stroke="none" stroke-width="1" fill="none" fill-rule="evenodd">
        <g id="180---iPhone-6-Plus">
            <g id="Artboard" transform="translate(30.000000, 11.000000)">
                <g id="Page-1">
                    <g id="Artboard">
                        <g id="Mask" stroke-opacity="0.115743886" stroke="#979797">
                            <path d="M35.4787395,143.29274 C35.0234326,147.063358 33.4298825,150.155218 30.6980409,152.568414 C27.9661993,154.981609 25.0067489,156.527539 21.8196004,157.206251 C18.632452,157.884962 15.7109428,157.545611 13.054986,156.188189 C10.3990289,154.830766 8.995187,152.115962 8.84341802,148.043695 C8.08457316,130.698851 7.70515642,112.713272 7.70515642,94.086419 L7.70515642,38.5454919 C5.27685284,37.6405436 3.45565248,36.2831415 2.24150071,34.4732446 C1.02734894,32.6633481 0.306457126,30.6649505 0.0788036534,28.477992 C-0.148849819,26.2910335 0.116741935,24.0664021 0.875586801,21.8040313 C1.63443167,19.5416604 2.77268188,17.5809684 4.29037161,15.9218964 C5.95983028,14.1119997 8.23633074,12.4529527 11.1199412,10.9447054 C14.0035516,9.43645817 17.1527108,8.04135037 20.5675126,6.75934022 C23.9823145,5.47733008 27.3591236,4.38386723 30.6980409,3.47891887 C34.0369581,2.57397055 36.8446423,1.89526945 39.1211766,1.4427953 C48.6826219,-0.517926153 58.3198072,-0.480220507 68.0330214,1.55591327 C77.746236,3.59204704 86.2831126,7.24949174 93.6439074,12.5283571 C101.004703,17.8072224 106.506246,24.6696445 110.148701,33.1158291 C113.791156,41.5620137 114.170573,51.2146513 111.286962,62.0740313 C110.376349,65.090526 109.238098,68.106975 107.872177,71.1234697 C106.506257,74.1399639 104.912707,76.9301798 103.091479,79.4941999 C100.511406,83.4156428 97.4760723,86.8845595 93.9853863,89.9010537 C90.4946998,92.9175484 86.7005324,95.7077638 82.6027703,98.2717844 C85.4863806,101.288279 88.2181811,104.45555 90.7982534,107.773694 C93.3783262,111.091839 96.2618933,114.108288 99.4490417,116.823133 C100.663194,117.878906 102.446452,119.537953 104.798871,121.800324 C107.15129,124.062694 109.427791,126.475854 111.628441,129.039874 C113.829091,131.603894 115.764117,134.130171 117.433575,136.618779 C119.103034,139.107387 119.861867,141.181195 119.710098,142.840268 C119.558329,145.705937 118.761554,148.307625 117.319749,150.645408 C115.877944,152.983191 114.132627,154.793061 112.083746,156.075071 C110.034865,157.357081 107.796306,157.998076 105.368002,157.998076 C102.939699,157.998076 100.511432,157.168553 98.0831281,155.509481 C95.3512865,153.397935 92.7712527,150.909364 90.3429492,148.043695 C87.9146452,145.178025 85.5622618,142.538631 83.2857271,140.125436 C78.2773508,134.695746 73.3828748,129.228432 68.6021523,123.723329 C63.8214295,118.218227 58.9269535,112.826324 53.9185776,107.547459 C50.883198,108.150757 47.8099226,108.565519 44.6986588,108.791756 C41.5873945,109.017993 38.5141191,109.281933 35.4787395,109.583582 L35.4787395,141.709088 L35.4787395,143.29274 Z M76.228505,33.7945369 C70.1577461,30.1747435 63.5179534,28.1386403 56.3089269,27.6861661 C49.0999009,27.233692 42.1565744,28.214038 35.4787395,30.6272336 L35.4787395,81.7565597 C42.3083432,81.3040852 49.0240198,80.4368563 55.6259701,79.154846 C62.2279204,77.8728357 68.33653,75.0449147 73.9519819,70.6709977 C76.9873612,68.2578021 79.45357,65.4298811 81.3506825,62.1871494 C83.2477945,58.9444177 84.3860448,55.6263238 84.765467,52.2327671 C85.1448897,48.8392108 84.6895893,45.521117 83.3995534,42.2783852 C82.109517,39.0356535 79.7191915,36.2077325 76.228505,33.7945369 L76.228505,33.7945369 Z" id="path-1"></path>
                        </g>
                        <g id="Group-Clipped">
                            <mask id="mask-2" fill="white">
                                <use xlink:href="#path-1"></use>
                            </mask>
                            <g id="path-1"></g>
                            <g id="Group" mask="url(#mask-2)">
                                <g transform="translate(-52.851986, -31.427793)" id="Star">
                                    <g>
                                        <polygon id="Shape" fill="#50E3C2" points="12.9901949 21.2958582 5.05299206 25.4424873 6.56886065 16.6597861 0.147530686 10.4398427 9.02159134 9.15846397 12.9901949 1.16769835 16.9587942 9.15846397 25.8328592 10.4398427 19.4115249 16.6597861 20.9273978 25.4424873"></polygon>
                                        <polygon id="Shape" fill="#7ED321" points="41.013743 21.3319304 33.0765401 25.4785591 34.592413 16.6958583 28.1710787 10.4759149 37.0451437 9.19453576 41.013743 1.20377057 44.9823466 9.19453576 53.8564072 10.4759149 47.4350773 16.6958583 48.9509458 25.4785591"></polygon>
                                        <polygon id="Shape" fill="#BD0FE1" points="69.0372953 21.4040744 61.1000924 25.5507031 62.615961 16.7680023 56.194631 10.5480585 65.0686917 9.26667977 69.0372953 1.27591458 73.0058946 9.26667977 81.8799596 10.5480585 75.4586253 16.7680023 76.9744982 25.5507031"></polygon>
                                        <polygon id="Shape" fill="#F6A623" points="97.0608433 21.4401462 89.1236404 25.5867753 90.6395134 16.8040741 84.2181791 10.5841307 93.092244 9.30275198 97.0608433 1.31198637 101.029447 9.30275198 109.903508 10.5841307 103.482178 16.8040741 104.998046 25.5867753"></polygon>
                                        <polygon id="Shape" fill="#50E3C2" points="125.084396 21.476218 117.147193 25.6228471 118.663061 16.8401459 112.241731 10.6202025 121.115792 9.33882377 125.084396 1.34805815 129.052995 9.33882377 137.92706 10.6202025 131.505726 16.8401459 133.021599 25.6228471"></polygon>
                                        <polygon id="Shape" fill="#F6A623" points="181.131496 20.357987 173.194293 24.5046161 174.710162 15.7219149 168.288832 9.50197147 177.162892 8.22059276 181.131496 0.229827144 185.100095 8.22059276 193.97416 9.50197147 187.552826 15.7219149 189.068699 24.5046161"></polygon>
                                        <polygon id="Shape" fill="#F8E81C" points="209.155044 20.3940592 201.217841 24.5406879 202.733714 15.7579871 196.31238 9.53804369 205.186445 8.25666455 209.155044 0.265899362 213.123648 8.25666455 221.997708 9.53804369 215.576378 15.7579871 217.092247 24.5406879"></polygon>
                                        <polygon id="Shape" fill="#417505" points="153.107944 20.502275 145.170741 24.6489041 146.686614 15.8662029 140.265279 9.64625948 149.139344 8.36488077 153.107944 0.374115155 157.076547 8.36488077 165.950608 9.64625948 159.529278 15.8662029 161.045147 24.6489041"></polygon>
                                        <polygon id="Shape" fill="#50E3C2" points="35.060556 46.0773024 27.1233531 50.2239314 28.6392217 41.4412302 22.2178917 35.2212868 31.0919523 33.9399081 35.060556 25.9491425 39.0291552 33.9399081 47.9032159 35.2212868 41.4818859 41.4412302 42.9977588 50.2239314"></polygon>
                                        <polygon id="Shape" fill="#F6A623" points="91.1076563 44.9590713 83.1704534 49.1057004 84.686322 40.3229992 78.2649921 34.1030558 87.1390527 32.8216771 91.1076563 24.8309115 95.0762556 32.8216771 103.950321 34.1030558 97.5289863 40.3229992 99.0448592 49.1057004"></polygon>
                                        <polygon id="Shape" fill="#F8E81C" points="119.131204 44.9951431 111.194001 49.1417722 112.709874 40.359071 106.28854 34.1391276 115.162605 32.8577489 119.131204 24.8669833 123.099808 32.8577489 131.973869 34.1391276 125.552539 40.359071 127.068407 49.1417722"></polygon>
                                        <polygon id="Shape" fill="#50E3C2" points="147.154757 45.0312154 139.217554 49.1778444 140.733422 40.3951432 134.312092 34.1751998 143.186153 32.8938207 147.154757 24.9030555 151.123356 32.8938207 159.997421 34.1751998 153.576087 40.3951432 155.09196 49.1778444"></polygon>
                                        <polygon id="Shape" fill="#7ED321" points="175.178305 45.0672871 167.241102 49.2139162 168.756975 40.431215 162.33564 34.2112716 171.209705 32.9298929 175.178305 24.9391273 179.146908 32.9298929 188.020969 34.2112716 181.599639 40.431215 183.115508 49.2139162"></polygon>
                                        <polygon id="Shape" fill="#417505" points="63.084104 45.1033594 55.1469011 49.249988 56.662774 40.4672872 50.2414397 34.2473438 59.1155047 32.9659647 63.084104 24.9751995 67.0527076 32.9659647 75.9267682 34.2473438 69.5054383 40.4672872 71.0213069 49.249988"></polygon>
                                        <polygon id="Shape" fill="#BD0FE1" points="203.201857 45.1394311 195.264654 49.2860602 196.780523 40.503359 190.359193 34.2834156 199.233253 33.0020369 203.201857 25.0112713 207.170456 33.0020369 216.044521 34.2834156 209.623187 40.503359 211.13906 49.2860602"></polygon>
                                        <polygon id="Shape" fill="#50E3C2" points="12.9901949 96.2173422 5.05299206 100.363971 6.56886065 91.5812701 0.147530686 85.3613267 9.02159134 84.079948 12.9901949 76.0891824 16.9587942 84.079948 25.8328592 85.3613267 19.4115249 91.5812701 20.9273978 100.363971"></polygon>
                                        <polygon id="Shape" fill="#7ED321" points="41.013743 96.253414 33.0765401 100.400043 34.592413 91.6173419 28.1710787 85.3973985 37.0451437 84.1160198 41.013743 76.1252541 44.9823466 84.1160198 53.8564072 85.3973985 47.4350773 91.6173419 48.9509458 100.400043"></polygon>
                                        <polygon id="Shape" fill="#BD0FE1" points="69.0372953 96.325558 61.1000924 100.472187 62.615961 91.6894859 56.194631 85.4695425 65.0686917 84.1881638 69.0372953 76.1973982 73.0058946 84.1881638 81.8799596 85.4695425 75.4586253 91.6894859 76.9744982 100.472187"></polygon>
                                        <polygon id="Shape" fill="#F6A623" points="97.0608433 96.3616302 89.1236404 100.508259 90.6395134 91.7255581 84.2181791 85.5056147 93.092244 84.2242356 97.0608433 76.2334704 101.029447 84.2242356 109.903508 85.5056147 103.482178 91.7255581 104.998046 100.508259"></polygon>
                                        <polygon id="Shape" fill="#50E3C2" points="125.084396 96.397702 117.147193 100.544331 118.663061 91.7616299 112.241731 85.5416865 121.115792 84.2603078 125.084396 76.2695422 129.052995 84.2603078 137.92706 85.5416865 131.505726 91.7616299 133.021599 100.544331"></polygon>
                                        <polygon id="Shape" fill="#F6A623" points="181.131496 95.279471 173.194293 99.4261001 174.710162 90.6433989 168.288832 84.4234555 177.162892 83.1420763 181.131496 75.1513111 185.100095 83.1420763 193.97416 84.4234555 187.552826 90.6433989 189.068699 99.4261001"></polygon>
                                        <polygon id="Shape" fill="#F8E81C" points="209.155044 95.3155428 201.217841 99.4621719 202.733714 90.6794706 196.31238 84.4595273 205.186445 83.1781486 209.155044 75.1873829 213.123648 83.1781486 221.997708 84.4595273 215.576378 90.6794706 217.092247 99.4621719"></polygon>
                                        <polygon id="Shape" fill="#417505" points="153.107944 95.423759 145.170741 99.5703877 146.686614 90.7876869 140.265279 84.5677431 149.139344 83.2863643 153.107944 75.2955992 157.076547 83.2863643 165.950608 84.5677431 159.529278 90.7876869 161.045147 99.5703877"></polygon>
                                        <polygon id="Shape" fill="#BD0FE1" points="24.0253733 70.6062427 16.0881704 74.7528717 17.6040433 65.9701705 11.182709 59.7502271 20.056774 58.4688484 24.0253733 50.4780828 27.9939769 58.4688484 36.8680375 59.7502271 30.4467076 65.9701705 31.9625762 74.7528717"></polygon>
                                        <polygon id="Shape" fill="#F6A623" points="52.0489256 70.6423149 44.1117227 74.7889435 45.6275913 66.0062427 39.2062614 59.7862989 48.080322 58.5049202 52.0489256 50.514155 56.0175249 58.5049202 64.8915899 59.7862989 58.4702556 66.0062427 59.9861285 74.7889435"></polygon>
                                        <polygon id="Shape" fill="#50E3C2" points="80.0724736 70.6783867 72.1352708 74.8250157 73.6511437 66.0423145 67.2298094 59.8223711 76.1038744 58.5409924 80.0724736 50.5502268 84.0410773 58.5409924 92.9151379 59.8223711 86.4938079 66.0423145 88.0096765 74.8250157"></polygon>
                                        <polygon id="Shape" fill="#F6A623" points="136.119574 69.5601557 128.182371 73.7067847 129.698244 64.9240835 123.27691 58.7041401 132.150975 57.422761 136.119574 49.4319958 140.088178 57.422761 148.962238 58.7041401 142.540908 64.9240835 144.056777 73.7067847"></polygon>
                                        <polygon id="Shape" fill="#F8E81C" points="164.143126 69.5962275 156.205923 73.7428565 157.721792 64.9601553 151.300462 58.7402119 160.174523 57.4588332 164.143126 49.4680676 168.111726 57.4588332 176.985791 58.7402119 170.564456 64.9601553 172.080329 73.7428565"></polygon>
                                        <polygon id="Shape" fill="#50E3C2" points="192.166674 69.6322997 184.229471 73.7789283 185.745344 64.9962275 179.32401 58.7762841 188.198075 57.494905 192.166674 49.5041398 196.135278 57.494905 205.009339 58.7762841 198.588009 64.9962275 200.103877 73.7789283"></polygon>
                                        <polygon id="Shape" fill="#417505" points="108.096026 69.7044433 100.158823 73.8510723 101.674692 65.0683715 95.2533617 58.8484277 104.127422 57.567049 108.096026 49.5762838 112.064625 57.567049 120.93869 58.8484277 114.517356 65.0683715 116.033229 73.8510723"></polygon>
                                        <polygon id="Shape" fill="#F6A623" points="34.044156 119.844483 26.1069531 123.991112 27.6228217 115.208411 21.2014917 108.988468 30.0755523 107.707089 34.044156 99.7163233 38.0127552 107.707089 46.8868202 108.988468 40.4654859 115.208411 41.9813588 123.991112"></polygon>
                                        <polygon id="Shape" fill="#50E3C2" points="62.0677083 119.880555 54.1305054 124.027184 55.646374 115.244483 49.225044 109.02454 58.0991047 107.743161 62.0677083 99.7523955 66.0363076 107.743161 74.9103682 109.02454 68.4890383 115.244483 70.0049112 124.027184"></polygon>
                                        <polygon id="Shape" fill="#F6A623" points="118.114809 118.762324 110.177606 122.908953 111.693474 114.126252 105.272144 107.906308 114.146205 106.62493 118.114809 98.634164 122.083408 106.62493 130.957473 107.906308 124.536139 114.126252 126.052012 122.908953"></polygon>
                                        <polygon id="Shape" fill="#F8E81C" points="146.138357 118.798396 138.201154 122.945025 139.717027 114.162324 133.295692 107.942381 142.169757 106.661001 146.138357 98.6702363 150.10696 106.661001 158.981021 107.942381 152.559691 114.162324 154.07556 122.945025"></polygon>
                                        <polygon id="Shape" fill="#50E3C2" points="174.161909 118.834468 166.224706 122.981097 167.740575 114.198396 161.319245 107.978452 170.193305 106.697074 174.161909 98.706308 178.130508 106.697074 187.004573 107.978452 180.583239 114.198396 182.099112 122.981097"></polygon>
                                        <polygon id="Shape" fill="#7ED321" points="202.185457 118.87054 194.248254 123.017169 195.764127 114.234468 189.342793 108.014525 198.216858 106.733145 202.185457 98.7423803 206.154061 106.733145 215.028121 108.014525 208.606791 114.234468 210.12266 123.017169"></polygon>
                                        <polygon id="Shape" fill="#417505" points="90.0912563 118.906612 82.1540534 123.053241 83.6699264 114.27054 77.2485921 108.050596 86.122657 106.769218 90.0912563 98.7784521 94.0598599 106.769218 102.933921 108.050596 96.5125906 114.27054 98.0284592 123.053241"></polygon>
                                        <polygon id="Shape" fill="#F6A623" points="28.0909646 144.481639 20.1537617 148.628268 21.6696347 139.845567 15.2483004 133.625624 24.1223653 132.344245 28.0909646 124.353479 32.0595682 132.344245 40.9336289 133.625624 34.5122989 139.845567 36.0281675 148.628268"></polygon>
                                        <polygon id="Shape" fill="#F8E81C" points="56.114517 144.517711 48.1773141 148.664341 49.6931827 139.881639 43.2718527 133.661696 52.1459134 132.380317 56.114517 124.389552 60.0831162 132.380317 68.9571812 133.661696 62.5358469 139.881639 64.0517199 148.664341"></polygon>
                                        <polygon id="Shape" fill="#50E3C2" points="84.138065 144.553783 76.2008621 148.700412 77.716735 139.917711 71.2954051 133.697768 80.1694657 132.416389 84.138065 124.425623 88.1066686 132.416389 96.9807292 133.697768 90.5593993 139.917711 92.0752679 148.700412"></polygon>
                                        <polygon id="Shape" fill="#B8E986" points="112.161617 144.589855 104.224414 148.736484 105.740287 139.953783 99.3189531 133.73384 108.193018 132.452461 112.161617 124.461696 116.130221 132.452461 125.004282 133.73384 118.582952 139.953783 120.09882 148.736484"></polygon>
                                        <polygon id="Shape" fill="#BD0FE1" points="140.18517 144.661999 132.247967 148.808628 133.763835 140.025927 127.342505 133.805984 136.216566 132.524605 140.18517 124.53384 144.153769 132.524605 153.027834 133.805984 146.6065 140.025927 148.122373 148.808628"></polygon>
                                        <polygon id="Shape" fill="#F6A623" points="168.208718 144.698071 160.271515 148.8447 161.787388 140.061999 155.366053 133.842056 164.240118 132.560677 168.208718 124.569911 172.177321 132.560677 181.051382 133.842056 174.630052 140.061999 176.145921 148.8447"></polygon>
                                        <polygon id="Shape" fill="#50E3C2" points="196.23227 144.734143 188.295067 148.880772 189.810936 140.098071 183.389606 133.878128 192.263666 132.596749 196.23227 124.605983 200.200869 132.596749 209.074934 133.878128 202.6536 140.098071 204.169473 148.880772"></polygon>
                                        <polygon id="Shape" fill="#F6A623" points="34.044156 194.765967 26.1069531 198.912596 27.6228217 190.129895 21.2014917 183.909952 30.0755523 182.628572 34.044156 174.637807 38.0127552 182.628572 46.8868202 183.909952 40.4654859 190.129895 41.9813588 198.912596"></polygon>
                                        <polygon id="Shape" fill="#50E3C2" points="62.0677083 194.802039 54.1305054 198.948668 55.646374 190.165967 49.225044 183.946023 58.0991047 182.664645 62.0677083 174.673879 66.0363076 182.664645 74.9103682 183.946023 68.4890383 190.165967 70.0049112 198.948668"></polygon>
                                        <polygon id="Shape" fill="#F6A623" points="118.114809 193.683808 110.177606 197.830437 111.693474 189.047736 105.272144 182.827792 114.146205 181.546414 118.114809 173.555648 122.083408 181.546414 130.957473 182.827792 124.536139 189.047736 126.052012 197.830437"></polygon>
                                        <polygon id="Shape" fill="#F8E81C" points="146.138357 193.71988 138.201154 197.866509 139.717027 189.083808 133.295692 182.863864 142.169757 181.582485 146.138357 173.59172 150.10696 181.582485 158.981021 182.863864 152.559691 189.083808 154.07556 197.866509"></polygon>
                                        <polygon id="Shape" fill="#50E3C2" points="174.161909 193.755952 166.224706 197.902581 167.740575 189.11988 161.319245 182.899936 170.193305 181.618557 174.161909 173.627792 178.130508 181.618557 187.004573 182.899936 180.583239 189.11988 182.099112 197.902581"></polygon>
                                        <polygon id="Shape" fill="#7ED321" points="202.185457 193.792024 194.248254 197.938653 195.764127 189.155952 189.342793 182.936008 198.216858 181.654629 202.185457 173.663864 206.154061 181.654629 215.028121 182.936008 208.606791 189.155952 210.12266 197.938653"></polygon>
                                        <polygon id="Shape" fill="#417505" points="90.0912563 193.828096 82.1540534 197.974725 83.6699264 189.192024 77.2485921 182.97208 86.122657 181.690701 90.0912563 173.699936 94.0598599 181.690701 102.933921 182.97208 96.5125906 189.192024 98.0284592 197.974725"></polygon>
                                        <polygon id="Shape" fill="#50E3C2" points="17.0557863 170.200955 9.11858339 174.347584 10.634452 165.564883 4.21312202 159.344939 13.0871827 158.06356 17.0557863 150.072795 21.0243856 158.06356 29.8984505 159.344939 23.4771162 165.564883 24.9929892 174.347584"></polygon>
                                        <polygon id="Shape" fill="#F6A623" points="73.1028866 169.082724 65.1656838 173.229353 66.6815567 164.446651 60.2602224 158.226708 69.1342874 156.945329 73.1028866 148.954564 77.0714903 156.945329 85.9455509 158.226708 79.5242166 164.446651 81.0400895 173.229353"></polygon>
                                        <polygon id="Shape" fill="#F8E81C" points="101.126439 169.118796 93.1892361 173.265424 94.7051047 164.482724 88.2837747 158.26278 97.1578354 156.981401 101.126439 148.990636 105.095038 156.981401 113.969103 158.26278 107.547769 164.482724 109.063642 173.265424"></polygon>
                                        <polygon id="Shape" fill="#50E3C2" points="129.149987 169.154868 121.212784 173.301497 122.728657 164.518795 116.307323 158.298852 125.181388 157.017473 129.149987 149.026708 133.118591 157.017473 141.992651 158.298852 135.571321 164.518795 137.08719 173.301497"></polygon>
                                        <polygon id="Shape" fill="#7ED321" points="157.173539 169.190939 149.236336 173.337568 150.752205 164.554868 144.330875 158.334924 153.204936 157.053545 157.173539 149.06278 161.142139 157.053545 170.016204 158.334924 163.594869 164.554868 165.110742 173.337568"></polygon>
                                        <polygon id="Shape" fill="#417505" points="45.0793343 169.227012 37.1421314 173.373641 38.6580043 164.590939 32.2366744 158.370996 41.110735 157.089617 45.0793343 149.098852 49.0479379 157.089617 57.9219986 158.370996 51.5006686 164.590939 53.0165372 173.373641"></polygon>
                                        <polygon id="Shape" fill="#BD0FE1" points="185.197087 169.263083 177.259884 173.409712 178.775757 164.627011 172.354423 158.407068 181.228488 157.125689 185.197087 149.134924 189.165691 157.125689 198.039752 158.407068 191.618422 164.627011 193.13429 173.409712"></polygon>
                                    </g>
                                </g>
                            </g>
                        </g>
                    </g>
                </g>
            </g>
        </g>
    </g>
</svg>